<svg width="375" height="68" viewBox="0 0 375 68" fill="none" xmlns="http://www.w3.org/2000/svg">
<circle r="19" transform="matrix(-1 0 0 1 356 19)" fill="black"/>
<ellipse rx="19" ry="19.5" transform="matrix(-1 0 0 1 356 29.5)" fill="#1552F0"/>
<ellipse rx="19" ry="19.5" transform="matrix(-1 0 0 1 356 38.5)" fill="#2CB04C"/>
<ellipse rx="19" ry="19.5" transform="matrix(-1 0 0 1 356 48.5)" fill="#E84D43"/>
<path d="M11.6807 33.6516C8.91923 33.6516 6.68066 35.8902 6.68066 38.6516V50.1679C6.68066 52.0127 5.18514 53.5082 3.34033 53.5082C1.49552 53.5082 0 52.0127 0 50.1679V7.78689C0 5.02546 2.23858 2.78689 5 2.78689H18.685C24.229 2.78689 28.5668 4.20355 31.6983 7.03689C34.8531 9.87022 36.4305 13.6209 36.4305 18.2889C36.4305 23.2124 34.8879 27.0096 31.8027 29.6803C28.7407 32.3279 24.345 33.6516 18.6154 33.6516H11.6807ZM6.68066 23.1824C6.68066 25.9438 8.91923 28.1824 11.6807 28.1824H18.685C22.2573 28.1824 24.9945 27.3463 26.8966 25.6742C28.7987 23.9788 29.7498 21.5403 29.7498 18.3586C29.7498 15.3395 28.7987 12.9242 26.8966 11.1127C24.9945 9.30123 22.3848 8.36066 19.0677 8.29098H11.6807C8.91923 8.29098 6.68066 10.5296 6.68066 13.291V23.1824Z" fill="black"/>
<path d="M41.7541 34.3135C41.7541 30.6209 42.4732 27.2999 43.9114 24.3504C45.3728 21.401 47.3909 19.125 49.9658 17.5225C52.5638 15.9201 55.5214 15.1189 58.8385 15.1189C63.965 15.1189 68.1056 16.8955 71.2604 20.4488C74.4383 24.002 76.0273 28.7281 76.0273 34.627V35.0799C76.0273 38.7493 75.3198 42.0471 73.9048 44.9734C72.513 47.8764 70.5065 50.1407 67.8852 51.7664C65.2872 53.3921 62.2948 54.2049 58.9081 54.2049C53.8048 54.2049 49.6642 52.4283 46.4862 48.875C43.3315 45.3217 41.7541 40.6189 41.7541 34.7664V34.3135ZM48.226 35.0799C48.226 39.2602 49.1887 42.6161 51.114 45.1475C53.0625 47.679 55.6606 48.9447 58.9081 48.9447C62.1788 48.9447 64.7769 47.6674 66.7022 45.1127C68.6275 42.5348 69.5902 38.9351 69.5902 34.3135C69.5902 30.1796 68.6043 26.8354 66.6326 24.2807C64.6841 21.7029 62.0861 20.4139 58.8385 20.4139C55.6606 20.4139 53.0973 21.6796 51.1488 24.2111C49.2003 26.7425 48.226 30.3654 48.226 35.0799Z" fill="black"/>
<path d="M91.0936 50.2896C91.0936 52.0672 89.6526 53.5082 87.875 53.5082C86.0975 53.5082 84.6565 52.0672 84.6565 50.2896V3.21854C84.6565 1.44099 86.0975 0 87.875 0C89.6526 0 91.0936 1.44099 91.0936 3.21854V50.2896Z" fill="black"/>
<path d="M108.422 50.2896C108.422 52.0672 106.981 53.5082 105.203 53.5082C103.425 53.5082 101.984 52.0672 101.984 50.2896V19.0341C101.984 17.2566 103.425 15.8156 105.203 15.8156C106.981 15.8156 108.422 17.2566 108.422 19.0341V50.2896ZM101.463 5.81762C101.463 4.77254 101.776 3.89003 102.402 3.17008C103.051 2.45014 104.003 2.09016 105.255 2.09016C106.508 2.09016 107.459 2.45014 108.108 3.17008C108.758 3.89003 109.083 4.77254 109.083 5.81762C109.083 6.8627 108.758 7.73361 108.108 8.43033C107.459 9.12705 106.508 9.47541 105.255 9.47541C104.003 9.47541 103.051 9.12705 102.402 8.43033C101.776 7.73361 101.463 6.8627 101.463 5.81762Z" fill="black"/>
<path d="M124.271 6.68852C126.048 6.68852 127.489 8.12952 127.489 9.90707V12.3013C127.489 14.2422 129.063 15.8156 131.004 15.8156H132.027C133.403 15.8156 134.518 16.9307 134.518 18.3064C134.518 19.682 133.403 20.7971 132.027 20.7971H131.004C129.063 20.7971 127.489 22.3705 127.489 24.3114V44.1721C127.489 45.6817 127.802 46.8197 128.429 47.5861C129.055 48.3292 130.122 48.7008 131.63 48.7008C133.223 48.7008 134.692 49.7853 134.692 51.3783V51.5156C134.692 52.6924 133.908 53.7436 132.748 53.9429C131.731 54.1176 130.732 54.2049 129.751 54.2049C126.875 54.2049 124.706 53.334 123.244 51.5922C121.783 49.8504 121.052 47.377 121.052 44.1721V24.2245C121.052 22.3316 119.518 20.7971 117.625 20.7971H116.688C115.313 20.7971 114.198 19.682 114.198 18.3064C114.198 16.9307 115.313 15.8156 116.688 15.8156H117.625C119.518 15.8156 121.052 14.2811 121.052 12.3883V9.90707C121.052 8.12952 122.493 6.68852 124.271 6.68852Z" fill="black"/>
<path d="M149.062 50.2896C149.062 52.0672 147.621 53.5082 145.844 53.5082C144.066 53.5082 142.625 52.0672 142.625 50.2896V19.0341C142.625 17.2566 144.066 15.8156 145.844 15.8156C147.621 15.8156 149.062 17.2566 149.062 19.0341V50.2896ZM142.103 5.81762C142.103 4.77254 142.416 3.89003 143.043 3.17008C143.692 2.45014 144.643 2.09016 145.896 2.09016C147.148 2.09016 148.1 2.45014 148.749 3.17008C149.399 3.89003 149.723 4.77254 149.723 5.81762C149.723 6.8627 149.399 7.73361 148.749 8.43033C148.1 9.12705 147.148 9.47541 145.896 9.47541C144.643 9.47541 143.692 9.12705 143.043 8.43033C142.416 7.73361 142.103 6.8627 142.103 5.81762Z" fill="black"/>
<path d="M174.497 48.9447C176.794 48.9447 178.8 48.248 180.517 46.8545C181.43 46.113 182.127 45.273 182.607 44.3342C183.336 42.9088 184.598 41.6291 186.198 41.6291C187.97 41.6291 189.413 43.1467 188.808 44.8121C188.437 45.8322 187.912 46.8265 187.232 47.7951C185.864 49.7459 184.031 51.3019 181.735 52.4631C179.462 53.6243 177.049 54.2049 174.497 54.2049C169.371 54.2049 165.288 52.4979 162.25 49.084C159.234 45.6469 157.726 40.9556 157.726 35.0102V33.9303C157.726 30.2609 158.399 26.998 159.744 24.1414C161.09 21.2848 163.015 19.0669 165.52 17.4877C168.049 15.9085 171.029 15.1189 174.463 15.1189C178.684 15.1189 182.187 16.3846 184.971 18.916C186.998 20.7444 188.342 22.9666 189.001 25.5826C189.432 27.2885 187.989 28.7746 186.229 28.7746C184.616 28.7746 183.342 27.4965 182.765 25.9904C182.296 24.7682 181.57 23.699 180.587 22.7828C178.94 21.2036 176.898 20.4139 174.463 20.4139C171.192 20.4139 168.652 21.5984 166.842 23.9672C165.056 26.3128 164.163 29.7152 164.163 34.1742V35.3934C164.163 39.7363 165.056 43.0806 166.842 45.4262C168.629 47.7719 171.18 48.9447 174.497 48.9447Z" fill="black"/>
<path d="M226.881 43.5546C226.16 41.5824 224.284 40.2705 222.185 40.2705H207.97C205.862 40.2705 203.98 41.5929 203.265 43.5765L200.45 51.3938C199.994 52.6624 198.79 53.5082 197.442 53.5082C195.201 53.5082 193.656 51.2641 194.454 49.1708L211.104 5.51864C211.731 3.87372 213.309 2.78689 215.069 2.78689C216.829 2.78689 218.406 3.87259 219.034 5.51627L235.721 49.1859C236.517 51.2713 234.977 53.5082 232.745 53.5082C231.407 53.5082 230.212 52.6724 229.753 51.416L226.881 43.5546ZM208.902 28.0633C207.721 31.3233 210.136 34.7664 213.603 34.7664H216.558C220.028 34.7664 222.443 31.3182 221.257 28.0572L219.777 23.9871C218.18 19.5963 211.968 19.6003 210.377 23.9932L208.902 28.0633Z" fill="black"/>
<path d="M274.986 35.0799C274.986 40.8163 273.675 45.4378 271.054 48.9447C268.433 52.4515 264.883 54.2049 260.406 54.2049C256.179 54.2049 249.62 57.624 249.62 61.851V64.7814C249.62 66.559 248.179 68 246.401 68C244.624 68 243.183 66.559 243.183 64.7814V18.8657C243.183 17.1812 244.549 15.8156 246.233 15.8156H247.938C248.573 15.8156 249.1 16.3049 249.147 16.9379C249.23 18.0343 250.685 18.5201 251.554 17.8464C253.899 16.028 256.815 15.1189 260.302 15.1189C264.826 15.1189 268.398 16.8258 271.019 20.2398C273.663 23.6537 274.986 28.403 274.986 34.4877V35.0799ZM268.549 34.3484C268.549 30.0984 267.644 26.7425 265.835 24.2807C264.025 21.819 261.543 20.5881 258.388 20.5881C254.933 20.5881 252.243 21.9487 250.319 24.6698C249.823 25.3716 249.62 26.2302 249.62 27.0897V42.4839C249.62 43.3396 249.821 44.1949 250.315 44.8933C252.228 47.5942 254.942 48.9447 258.458 48.9447C261.543 48.9447 263.99 47.7254 265.8 45.2869C267.632 42.8251 268.549 39.179 268.549 34.3484Z" fill="black"/>
<path d="M315 35.0799C315 40.8163 313.689 45.4378 311.068 48.9447C308.447 52.4515 304.898 54.2049 300.421 54.2049C296.194 54.2049 289.634 57.624 289.634 61.851V64.7815C289.634 66.559 288.193 68 286.416 68C284.638 68 283.197 66.559 283.197 64.7815V18.8657C283.197 17.1812 284.563 15.8156 286.247 15.8156H287.952C288.587 15.8156 289.114 16.3049 289.162 16.9379C289.244 18.0343 290.7 18.5201 291.568 17.8464C293.914 16.028 296.83 15.1189 300.316 15.1189C304.84 15.1189 308.412 16.8258 311.033 20.2398C313.678 23.6537 315 28.403 315 34.4877V35.0799ZM308.563 34.3484C308.563 30.0984 307.658 26.7425 305.849 24.2807C304.04 21.819 301.557 20.5881 298.403 20.5881C294.947 20.5881 292.257 21.9487 290.334 24.6698C289.838 25.3716 289.634 26.2302 289.634 27.0897V42.4839C289.634 43.3396 289.835 44.1949 290.33 44.8933C292.242 47.5942 294.956 48.9447 298.472 48.9447C301.557 48.9447 304.005 47.7254 305.814 45.2869C307.647 42.8251 308.563 39.179 308.563 34.3484Z" fill="black"/>
</svg>
